<svg width="1024" height="1024" viewBox="0 0 1024 1024" fill="none" xmlns="http://www.w3.org/2000/svg">
  <defs>
    <linearGradient id="shieldOuter" x1="186" y1="98" x2="838" y2="934" gradientUnits="userSpaceOnUse">
      <stop offset="0" stop-color="#0E3944" />
      <stop offset="0.56" stop-color="#105968" />
      <stop offset="1" stop-color="#0B2F3A" />
    </linearGradient>
    <linearGradient id="shieldInner" x1="270" y1="190" x2="754" y2="842" gradientUnits="userSpaceOnUse">
      <stop offset="0" stop-color="#F3FFFB" />
      <stop offset="1" stop-color="#CCF0E5" />
    </linearGradient>
    <linearGradient id="checkGradient" x1="426" y1="620" x2="596" y2="740" gradientUnits="userSpaceOnUse">
      <stop offset="0" stop-color="#20E0AF" />
      <stop offset="1" stop-color="#42CAEE" />
    </linearGradient>
  </defs>

  <path d="M512 64L140 220V506C140 748 296 904 512 960C728 904 884 748 884 506V220L512 64Z" fill="url(#shieldOuter)"/>
  <path d="M512 96L172 238V504C172 726 312 866 512 920C712 866 852 726 852 504V238L512 96Z" stroke="white" stroke-opacity="0.22" stroke-width="10"/>

  <path d="M512 128L206 256V500C206 706 330 834 512 888C694 834 818 706 818 500V256L512 128Z" fill="url(#shieldInner)"/>
  <path d="M512 156L236 272V498C236 684 346 800 512 852C678 800 788 684 788 498V272L512 156Z" stroke="#0D3440" stroke-opacity="0.22" stroke-width="8"/>

  <path d="M396 358H588L676 446V682C676 701.882 659.882 718 640 718H396C376.118 718 360 701.882 360 682V394C360 374.118 376.118 358 396 358Z" fill="#F8FFFC"/>
  <path d="M588 358V414C588 431.673 602.327 446 620 446H676L588 358Z" fill="#D6F1E8"/>
  <path d="M588 358V414C588 431.673 602.327 446 620 446H676" stroke="#123F4B" stroke-opacity="0.24" stroke-width="6"/>

  <path d="M426 478H596" stroke="#1A4D59" stroke-opacity="0.56" stroke-width="20" stroke-linecap="round"/>
  <path d="M426 542H574" stroke="#1A4D59" stroke-opacity="0.40" stroke-width="20" stroke-linecap="round"/>
  <path d="M426 606H540" stroke="#1A4D59" stroke-opacity="0.28" stroke-width="20" stroke-linecap="round"/>

  <path d="M430 622L490 682L610 568" fill="none" stroke="url(#checkGradient)" stroke-width="32" stroke-linecap="round" stroke-linejoin="round"/>
</svg>
